<svg width="310" height="48" viewBox="0 0 310 48" fill="none" xmlns="http://www.w3.org/2000/svg">
<g clip-path="url(#clip0)">
<path d="M0 14.2188V21.158L11.3758 18.3141V14.8445C11.3758 13.542 12.2631 12.4044 13.5315 12.0859L30.5951 7.81997C32.3925 7.37063 34.1273 8.73003 34.1273 10.5786V16.0901C34.1273 17.3927 33.24 18.5302 31.9716 18.8488L4.30572 25.7652C1.77462 26.4023 0 28.6774 0 31.2825V42.3056C0 46.0084 3.47529 48.7215 7.07003 47.8228L41.1973 39.291C43.7284 38.6596 45.503 36.3845 45.503 33.7738V5.68702C45.503 1.98421 42.0277 -0.728909 38.433 0.169776L4.30572 8.70159C1.77462 9.33864 0 11.6138 0 14.2188ZM31.9716 35.9124L14.9079 40.1783C13.1106 40.6277 11.3758 39.2682 11.3758 37.4197V31.9081C11.3758 30.6056 12.2631 29.468 13.5315 29.1495L34.1273 24.002V33.1595C34.1273 34.462 33.24 35.5996 31.9716 35.9124Z" fill="#F24444"/>
<path d="M87.1383 31.3402H72.4636L69.2783 39.8151H62.5667L76.2176 5.68787H83.6118L97.2627 39.8151H90.2666L87.1383 31.3402ZM74.5112 26.0505H85.1475L83.6687 22.069C82.4173 18.8269 81.1091 15.3004 80.0284 12.0583H79.6303C78.5496 15.3004 77.2414 18.8269 75.99 22.069L74.5112 26.0505Z" fill="white"/>
<path d="M104.93 39.8151H98.787V4.94843H104.93V39.8151Z" fill="white"/>
<path d="M110.817 18.258H107.177V13.0821H110.817V5.97223H116.903V13.0821H124.809V18.258H116.903V30.6576C116.903 33.274 117.927 34.5823 120.6 34.5823C121.965 34.5823 123.216 34.241 124.411 33.9566L125.15 39.5876C123.216 40.2132 121.794 40.5545 119.178 40.5545C113.32 40.5545 110.817 36.6868 110.817 31.6814V18.258Z" fill="white"/>
<path d="M125.64 26.7899C125.64 17.7461 130.986 12.3995 139.29 12.3995C147.424 12.3995 151.519 17.5186 151.519 24.856C151.519 25.9367 151.519 27.0174 151.406 28.4394H131.782C132.351 32.9328 134.968 35.151 139.347 35.151C143.613 35.151 145.206 33.0465 146.002 30.3164L151.349 31.8521C149.984 36.9712 146.343 40.4977 139.29 40.4977C131.1 40.4977 125.64 35.6061 125.64 26.7899ZM131.839 23.8891H145.832C145.49 19.7369 143.329 17.5755 139.12 17.5755C135.081 17.5755 132.522 19.5663 131.839 23.8891Z" fill="white"/>
<path d="M154.835 39.8151V13.0821H160.978V21.8414H161.092C162.287 14.9022 164.675 13.0821 168.714 13.0821H170.25V19.9644H167.633C162.855 19.9644 160.978 21.6139 160.978 26.278V39.8151H154.835Z" fill="white"/>
<path d="M184.731 17.9737C180.351 17.9737 177.28 20.7038 177.28 26.4486C177.28 31.909 180.294 34.9235 184.845 34.9235C189.338 34.9235 190.931 32.0796 191.784 28.2687L197.642 29.4632C196.562 36.2886 192.694 40.5545 184.958 40.5545C176.54 40.5545 171.023 35.6061 171.023 26.5055C171.023 17.6324 176.654 12.3995 184.788 12.3995C192.808 12.3995 196.505 16.3811 197.585 23.2634L191.67 24.2303C190.874 20.4763 188.883 17.9737 184.731 17.9737Z" fill="white"/>
<path d="M217.112 33.1034H216.998C215.747 37.8812 212.505 40.3839 207.898 40.3839C202.949 40.3839 199.48 37.8812 199.48 32.7621C199.48 27.8706 202.437 24.3441 209.149 24.3441H217.112V23.2634C217.112 19.6232 215.633 17.6324 211.936 17.6324C208.637 17.6324 206.76 19.1112 206.134 22.979L200.276 22.1827C201.072 16.2104 204.599 12.5133 212.164 12.5133C219.899 12.5133 223.198 16.3811 223.198 23.2065V39.8151H217.112V33.1034ZM217.112 29.7476V28.8944H210.059C207.101 28.8944 205.509 29.9751 205.509 31.7952C205.509 33.6722 206.703 35.3786 210.173 35.3786C214.382 35.3786 217.112 32.9897 217.112 29.7476Z" fill="white"/>
<path d="M228.562 18.258H224.921V13.0821H228.562V5.97223H234.648V13.0821H242.554V18.258H234.648V30.6576C234.648 33.274 235.672 34.5823 238.345 34.5823C239.71 34.5823 240.961 34.241 242.156 33.9566L242.895 39.5876C240.961 40.2132 239.539 40.5545 236.923 40.5545C231.064 40.5545 228.562 36.6868 228.562 31.6814V18.258Z" fill="white"/>
<path d="M245.051 9.49873V4.94843H251.706V9.49873H245.051ZM245.335 39.8151V13.0821H251.478V39.8151H245.335Z" fill="white"/>
<path d="M254.641 26.3917C254.641 17.5755 260.101 12.3995 268.348 12.3995C276.539 12.3995 281.999 17.5755 281.999 26.3917C281.999 35.151 276.823 40.5545 268.348 40.5545C259.76 40.5545 254.641 35.151 254.641 26.3917ZM260.783 26.3348C260.783 31.5108 263.457 34.9235 268.291 34.9235C273.183 34.9235 275.913 31.5108 275.913 26.3348C275.913 21.2157 273.069 17.9737 268.348 17.9737C263.571 17.9737 260.783 21.2157 260.783 26.3348Z" fill="white"/>
<path d="M291.259 39.8151H285.116V13.0821H291.259V20.4194H291.316C292.51 14.7316 295.923 12.3995 300.417 12.3995C306.844 12.3995 309.29 16.6086 309.29 22.4102V39.8151H303.147V24.0028C303.147 20.7607 301.725 17.9168 297.573 17.9168C293.648 17.9168 291.259 20.1919 291.259 24.0028V39.8151Z" fill="white"/>
</g>
<defs>
<clipPath id="clip0">
<rect width="309.29" height="48" fill="white"/>
</clipPath>
</defs>
</svg>
